<svg xmlns="http://www.w3.org/2000/svg" xmlns:xlink="http://www.w3.org/1999/xlink" version="1.1" x="0px" y="0px" viewBox="0 0 5000 6250" style="enable-background:new 0 0 5000 5000;" xml:space="preserve"><g><g><g><path d="M2513.7,3416c-116.1,0-228.6-22.7-334.6-67.6c-102.4-43.3-194.3-105.2-273.1-184.2c-78.9-78.9-140.9-170.9-184.2-273.1     c-44.8-106-67.6-218.5-67.6-334.6c0-116.1,22.7-228.6,67.6-334.6c43.3-102.4,105.2-194.3,184.2-273.1     c78.9-78.9,170.9-140.9,273.1-184.2c106-44.8,218.5-67.6,334.6-67.6c116.1,0,228.6,22.7,334.6,67.6     c102.4,43.3,194.3,105.2,273.1,184.2c78.9,79,140.9,170.9,184.2,273.1c44.8,106,67.6,218.5,67.6,334.6     c0,116.1-22.7,228.6-67.6,334.6c-43.3,102.4-105.2,194.3-184.2,273.1c-78.9,78.9-170.9,140.9-273.1,184.2     C2742.2,3393.4,2629.6,3416,2513.7,3416z M2513.7,1751.6c-443.8,0-805,361-805,805s361,805,805,805c443.8,0,805-361,805-805     S2957.5,1751.6,2513.7,1751.6z"/><path d="M2500,3266c-15,0-27.2-12.2-27.2-27.2c0-15,12.2-27.2,27.2-27.2c234.8,0,448.2-119.8,570.9-320.5     c7.9-12.9,24.6-16.9,37.5-9c12.9,7.9,16.9,24.6,9,37.5c-63.5,103.9-152.8,190.7-258.3,251.3C2750.3,3233,2626.2,3266,2500,3266z"/><path d="M3167.2,2768.2c-2.6,0-5.1-0.3-7.8-1.1c-14.5-4.3-22.7-19.5-18.4-33.9c18.2-61.4,27.5-125.5,27.5-190.3     c0-15,12.2-27.2,27.2-27.2s27.2,12.2,27.2,27.2c0,70-10,139.2-29.6,205.8C3189.8,2760.5,3179,2768.2,3167.2,2768.2z"/><g><path d="M2500,1587.9c-15,0-27.2-12.2-27.2-27.2v-300.2c0-15,12.2-27.2,27.2-27.2c15,0,27.2,12.2,27.2,27.2v300.2      C2527.2,1575.7,2515,1587.9,2500,1587.9z"/><path d="M2500,3852.7c-15,0-27.2-12.2-27.2-27.2v-300.3c0-15,12.2-27.2,27.2-27.2c15,0,27.2,12.2,27.2,27.2v300.2      C2527.2,3840.4,2515,3852.7,2500,3852.7z"/><path d="M3782.4,2570.2h-300.2c-15,0-27.2-12.2-27.2-27.2s12.2-27.2,27.2-27.2h300.2c15,0,27.2,12.2,27.2,27.2      S3797.4,2570.2,3782.4,2570.2z"/><path d="M1517.8,2570.2h-300.2c-15,0-27.2-12.2-27.2-27.2s12.2-27.2,27.2-27.2h300.2c15,0,27.2,12.2,27.2,27.2      S1532.8,2570.2,1517.8,2570.2z"/><path d="M3194.6,1875.7c-7,0-14-2.6-19.3-8c-10.6-10.6-10.6-27.9,0-38.5l212.3-212.3c10.6-10.6,27.9-10.6,38.5,0      s10.6,27.9,0,38.5l-212.3,212.3C3208.5,1872.9,3201.5,1875.7,3194.6,1875.7z"/><path d="M1593.2,3477c-7,0-14-2.6-19.3-8c-10.6-10.6-10.6-27.9,0-38.5l212.3-212.3c10.6-10.6,27.9-10.6,38.5,0s10.6,27.9,0,38.5      l-212.3,212.3C1607.1,3474.3,1600.2,3477,1593.2,3477z"/><path d="M3406.7,3477c-7,0-14-2.6-19.3-8l-212.3-212.3c-10.6-10.6-10.6-27.9,0-38.5s27.9-10.6,38.5,0l212.3,212.3      c10.6,10.6,10.6,27.9,0,38.5C3420.8,3474.3,3413.8,3477,3406.7,3477z"/><path d="M1805.4,1875.7c-7,0-14-2.6-19.3-8l-212.3-212.3c-10.6-10.6-10.6-27.9,0-38.5s27.9-10.6,38.5,0l212.3,212.3      c10.6,10.6,10.6,27.9,0,38.5C1819.4,1872.9,1812.5,1875.7,1805.4,1875.7z"/></g><g><path d="M2134.6,1658.4c-10.8,0-21.1-6.5-25.3-17.1l-40.6-101.3c-5.6-14,1.1-29.9,15.2-35.5c14-5.6,29.9,1.1,35.5,15.2      l40.6,101.3c5.6,14-1.1,29.9-15.2,35.5C2141.5,1657.8,2138,1658.4,2134.6,1658.4z"/><path d="M2905.9,3583.3c-10.8,0-21.1-6.5-25.3-17.1l-40.6-101.3c-5.6-14,1.1-29.9,15.2-35.5c14-5.6,29.9,1.1,35.5,15.2      l40.6,101.3c5.6,14-1.1,29.9-15.2,35.5C2912.8,3582.7,2909.4,3583.3,2905.9,3583.3z"/><path d="M3411.8,2204.8c-10.8,0-21.1-6.5-25.3-17.1c-5.6-14,1.1-29.9,15.2-35.5l101.3-40.6c14-5.6,29.9,1.1,35.5,15.2      c5.6,14-1.1,29.9-15.2,35.5l-101.3,40.6C3418.6,2204.2,3415.2,2204.8,3411.8,2204.8z"/><path d="M1486.9,2976.2c-10.8,0-21.1-6.5-25.3-17.1c-5.6-14,1.1-29.9,15.2-35.5l101.3-40.6c14-5.6,29.9,1.1,35.5,15.2      c5.6,14-1.1,29.9-15.2,35.5l-101.3,40.6C1493.7,2975.6,1490.3,2976.2,1486.9,2976.2z"/></g><g><path d="M2886.3,1667.2c-3.5,0-7.2-0.7-10.7-2.2c-13.9-5.9-20.3-22-14.4-35.8l43-100.3c5.9-13.9,22-20.3,35.8-14.4      c13.9,5.9,20.3,22,14.4,35.8l-43,100.3C2907,1660.9,2896.9,1667.2,2886.3,1667.2z"/><path d="M2070.7,3573.6c-3.5,0-7.2-0.7-10.7-2.2c-13.9-5.9-20.3-22-14.4-35.8l43-100.3c5.9-13.9,22-20.3,35.8-14.4      c13.9,5.9,20.3,22,14.4,35.8l-43,100.3C2091.4,3567.4,2081.3,3573.6,2070.7,3573.6z"/><path d="M3503.4,2999.5c-3.5,0-7.2-0.7-10.7-2.2l-100.3-43c-13.9-5.9-20.3-22-14.4-35.8c5.9-13.9,22-20.3,35.8-14.4l100.3,43      c13.9,5.9,20.3,22,14.4,35.8C3524,2993.3,3514,2999.5,3503.4,2999.5z"/><path d="M1596.9,2183.8c-3.5,0-7.2-0.7-10.7-2.2l-100.3-43c-13.9-5.9-20.3-22-14.4-35.8c5.9-13.9,22-20.3,35.8-14.4l100.3,43      c13.9,5.9,20.3,22,14.4,35.8C1617.5,2177.7,1607.5,2183.8,1596.9,2183.8z"/></g><path d="M3893.5,1451.5h-376.8c-68.6,0-127.9-46.6-140.7-110.8c-8.3-41.8,2.1-84.4,28.7-116.8c26-31.7,64.1-50.2,104.9-51.1     c13.1-35,35.7-66.3,65.2-89.8c36.8-29.3,81.2-44.7,128.3-44.7c69.1,0,132.9,34.3,171.2,90.9c32.8-4.1,64.9,2.3,95.3,18.9     c46.7,25.7,78.3,70.9,84.5,121.1c5.7,46.4-8.6,92.9-39.2,127.6C3984,1431.6,3939.8,1451.5,3893.5,1451.5z M3512.4,1227.4     c-25.5,0-49.5,11.3-65.7,31.1c-16.4,20.1-22.6,45.5-17.3,71.5c7.8,38.8,44.5,66.9,87.2,66.9h376.8c30.7,0,60-13.2,80.4-36.3     c20.6-23.4,29.9-53.5,26-84.8c-4-32.4-25.7-62.9-56.5-79.9l0,0c-24.5-13.5-49.4-16.8-75.9-10.1c-12.1,3.1-24.7-2.5-30.7-13.5     c-26.7-49.1-77.9-79.6-133.7-79.6c-70,0-130.5,47.4-147.4,115.5c-3.4,13.7-16.6,22.6-30.6,20.4l-0.6-0.1     C3519.8,1228,3516,1227.4,3512.4,1227.4z"/><path d="M1465.1,3961.8h-381c-76.8,0-139.3-62.5-139.3-139.3c0-75.8,61-137.7,136.5-139.3c13.1-35,35.7-66.3,65.2-89.8     c36.8-29.3,81.2-44.7,128.3-44.7c69.1,0,132.9,34.3,171.2,90.9c6.5-0.8,13-1.3,19.4-1.3c89.1,0,161.8,72.6,161.8,161.8     C1626.9,3889.1,1554.4,3961.8,1465.1,3961.8z M1084.1,3737.6c-46.7,0-84.8,38.1-84.8,84.8s38.1,84.8,84.8,84.8h381     c59.1,0,107.2-48.1,107.2-107.2c0-59.1-48.1-107.2-107.2-107.2c-8.4,0-17.2,1.1-26.2,3.4c-12.1,3.1-24.7-2.5-30.7-13.5     c-26.7-49.1-77.9-79.6-133.7-79.6c-70,0-130.5,47.4-147.4,115.5c-3.4,13.7-16.6,22.6-30.6,20.4l-0.6-0.1     C1091.5,3738.2,1087.5,3737.6,1084.1,3737.6z"/></g></g></g><text x="0" y="5015" fill="#000000" font-size="5px" font-weight="bold" font-family="'Helvetica Neue', Helvetica, Arial-Unicode, Arial, Sans-serif">Created by bsd studio</text><text x="0" y="5020" fill="#000000" font-size="5px" font-weight="bold" font-family="'Helvetica Neue', Helvetica, Arial-Unicode, Arial, Sans-serif">from the Noun Project</text></svg>